<svg xmlns="http://www.w3.org/2000/svg" viewBox="0 0 414.49 290.75"><defs><style>.cls-1{isolation:isolate;}.cls-2{opacity:0.63;}.cls-3{fill:#000404;}.cls-4{fill:#d1cce5;}.cls-12,.cls-14,.cls-21,.cls-4,.cls-42,.cls-43,.cls-48,.cls-49,.cls-5,.cls-50,.cls-8,.cls-9{fill-rule:evenodd;}.cls-5{fill:#e2e4e8;}.cls-6{fill:#eeeeef;mix-blend-mode:multiply;}.cls-7{fill:#00a195;}.cls-8{fill:#535671;}.cls-9{fill:#66646d;}.cls-10{fill:#3e3a39;}.cls-11,.cls-12{fill:#fff;}.cls-13{fill:#17acb3;}.cls-14,.cls-22{fill:#e7e5e4;}.cls-15{fill:#55bece;}.cls-16,.cls-21{fill:#fff57f;}.cls-17{fill:#f29e7d;}.cls-18{fill:#f7be7e;}.cls-19{fill:#82ceed;}.cls-20{fill:#c6c7c8;}.cls-23{fill:#c42f41;}.cls-24{fill:#b51d23;}.cls-25{fill:#80191e;}.cls-26{fill:#2d0304;}.cls-27{fill:#f3aca9;}.cls-28{fill:#ed807b;}.cls-29{fill:#e9574e;}.cls-30{fill:#e62c10;}.cls-31{fill:#f9d19e;}.cls-32{fill:#f7b96b;}.cls-33{fill:#f4a236;}.cls-34{fill:#f08d00;}.cls-35{fill:#90d0d0;}.cls-36{fill:#5cbfb9;}.cls-37{fill:#00afaa;}.cls-38{fill:#9cc3e1;}.cls-39{fill:#6ca4d2;}.cls-40{fill:#2985c2;}.cls-41{fill:#0069b4;}.cls-42{fill:#505054;}.cls-43{fill:#b9babc;}.cls-44{fill:#f9c140;}.cls-45{fill:#fbd06d;}.cls-46{fill:#d7a230;}.cls-47{fill:#c6880b;}.cls-48{fill:#ffeec9;}.cls-49{fill:#464442;}.cls-50{fill:#796bae;}.cls-51{fill:#eddfc9;}</style></defs><title>mainsvg</title><g class="cls-1"><g id="OBJECTS"><g class="cls-2"><rect class="cls-3" x="70.98" y="95.89" width="268.93" height="187.98" rx="14.3"/><path class="cls-4" d="M85.7,370.28v3.48c0,7.58,8,13.73,17.79,13.73H402.4c9.83,0,17.8-6.15,17.8-13.73v-3.48Z" transform="translate(-47.51 -101.83)"/><polygon class="cls-5" points="81.48 107.87 81.48 253.78 328.12 253.78 328.12 120.03 81.48 120.03 81.48 107.87"/><rect class="cls-6" x="256.01" y="133.32" width="66.69" height="89"/><rect class="cls-7" x="81.48" y="107.87" width="246.64" height="12.16"/><rect class="cls-6" x="96.42" y="107.87" width="151.61" height="138.32"/><path class="cls-8" d="M402.41,392.58h0Zm-299,0Zm299.1,0Zm.11,0Zm.07,0Zm8.2-2.14h0a17.77,17.77,0,0,1-8.18,2.14,17.77,17.77,0,0,0,8.18-2.14Zm.05,0h0l0,0,0,0Zm.08,0h0l-.07,0,.07,0Zm.05,0h0l0,0,0,0Zm.06,0Zm.07,0Zm.06,0Z" transform="translate(-47.51 -101.83)"/><path class="cls-9" d="M418.49,379.63H87.41c2.84,4.63,8.93,7.84,16,7.86H402.7a22,22,0,0,0,8.18-1.65h.06l.07,0h.08l0,0,.05,0h0l.05,0h0A16,16,0,0,0,418.49,379.63Z" transform="translate(-47.51 -101.83)"/><rect class="cls-10" x="252.22" y="130.76" width="67.03" height="87.96"/><rect class="cls-11" x="258.87" y="139.93" width="16.79" height="1.05"/><rect class="cls-11" x="258.87" y="142.52" width="8.87" height="1.05"/><rect class="cls-11" x="258.87" y="145.12" width="14.3" height="1.05"/><rect class="cls-11" x="265.52" y="150.31" width="8.35" height="1.05"/><rect class="cls-11" x="271.32" y="152.91" width="8.12" height="1.05"/><rect class="cls-11" x="270.72" y="142.52" width="15.13" height="1.05"/><rect class="cls-11" x="288.01" y="142.52" width="7.23" height="1.05"/><rect class="cls-11" x="297.98" y="142.52" width="9.75" height="1.05"/><rect class="cls-11" x="275.56" y="145.12" width="8.51" height="1.05"/><polygon class="cls-12" points="273.87 147.72 272.3 147.72 265.52 147.72 265.52 148.77 272.3 148.77 273.87 148.77 281.29 148.77 281.29 147.72 273.87 147.72"/><rect class="cls-11" x="276.42" y="150.31" width="8.35" height="1.05"/><rect class="cls-11" x="283.61" y="147.72" width="9.28" height="1.05"/><rect class="cls-11" x="294.74" y="147.72" width="4.87" height="1.05"/><rect class="cls-11" x="301.7" y="147.72" width="6.03" height="1.05"/><rect class="cls-11" x="286.62" y="150.31" width="10.54" height="1.05"/><rect class="cls-11" x="298.74" y="150.31" width="3.15" height="1.05"/><rect class="cls-11" x="281.75" y="152.91" width="6.04" height="1.05"/><rect class="cls-11" x="265.52" y="158.1" width="8.35" height="1.05"/><rect class="cls-11" x="265.52" y="160.7" width="8.35" height="1.05"/><rect class="cls-11" x="276.42" y="160.7" width="7.52" height="1.05"/><polygon class="cls-12" points="284.78 158.1 283.61 158.1 276.42 158.1 276.42 159.16 283.61 159.16 284.78 159.16 290.75 159.16 290.75 158.1 284.78 158.1"/><rect class="cls-11" x="292.17" y="158.1" width="3.75" height="1.05"/><rect class="cls-11" x="297.53" y="158.1" width="4.64" height="1.05"/><rect class="cls-11" x="291.25" y="160.7" width="8.35" height="1.05"/><rect class="cls-11" x="265.52" y="163.3" width="8.35" height="1.05"/><rect class="cls-11" x="265.52" y="165.9" width="8.35" height="1.05"/><rect class="cls-11" x="276.42" y="163.3" width="4.87" height="1.05"/><rect class="cls-11" x="276.42" y="165.9" width="15.31" height="1.05"/><polygon class="cls-12" points="292.89 163.3 289.1 163.3 283.61 163.3 283.61 164.35 289.1 164.35 292.89 164.35 299.61 164.35 299.61 163.3 292.89 163.3"/><rect class="cls-11" x="301.7" y="163.3" width="6.03" height="1.05"/><rect class="cls-11" x="293.58" y="165.9" width="8.58" height="1.05"/><rect class="cls-11" x="285.61" y="160.7" width="3.55" height="1.05"/><rect class="cls-11" x="258.87" y="171.09" width="8.87" height="1.05"/><rect class="cls-11" x="258.87" y="173.68" width="14.3" height="1.05"/><rect class="cls-11" x="265.52" y="176.28" width="8.35" height="1.05"/><rect class="cls-11" x="265.52" y="178.88" width="8.35" height="1.06"/><polygon class="cls-12" points="282.86 171.09 281.27 171.09 270.72 171.09 270.72 172.14 281.27 172.14 282.86 172.14 285.5 172.14 285.5 171.09 282.86 171.09"/><rect class="cls-11" x="288.25" y="171.09" width="13.48" height="1.05"/><rect class="cls-11" x="275.56" y="173.68" width="8.51" height="1.05"/><rect class="cls-11" x="276.42" y="178.88" width="6.49" height="1.06"/><polygon class="cls-12" points="289.29 176.28 288.25 176.28 276.42 176.28 276.42 177.34 288.25 177.34 289.29 177.34 295.32 177.34 295.32 176.28 289.29 176.28"/><rect class="cls-11" x="284.77" y="178.88" width="12.4" height="1.06"/><rect class="cls-11" x="298.74" y="178.88" width="3.15" height="1.06"/><rect class="cls-11" x="281.75" y="181.48" width="6.04" height="1.05"/><polygon class="cls-12" points="279.44 181.48 277.26 181.48 271.32 181.48 271.32 182.53 277.26 182.53 279.44 182.53 300.37 182.53 300.37 181.48 279.44 181.48"/><rect class="cls-11" x="302.04" y="181.48" width="3.36" height="1.05"/><rect class="cls-11" x="265.52" y="186.67" width="8.35" height="1.05"/><rect class="cls-11" x="265.52" y="189.27" width="8.35" height="1.05"/><rect class="cls-11" x="276.42" y="186.67" width="13.74" height="1.05"/><rect class="cls-11" x="276.42" y="189.27" width="7.52" height="1.05"/><rect class="cls-11" x="292.17" y="186.67" width="3.75" height="1.05"/><rect class="cls-11" x="297.53" y="186.67" width="4.64" height="1.05"/><rect class="cls-11" x="291.25" y="189.27" width="8.35" height="1.05"/><rect class="cls-11" x="285.61" y="189.27" width="3.55" height="1.05"/><rect class="cls-11" x="258.87" y="193.53" width="8.87" height="1.05"/><rect class="cls-11" x="258.87" y="196.12" width="14.3" height="1.05"/><rect class="cls-11" x="265.52" y="198.72" width="8.35" height="1.05"/><rect class="cls-11" x="265.52" y="201.31" width="8.35" height="1.05"/><rect class="cls-11" x="271.32" y="203.92" width="8.12" height="1.05"/><rect class="cls-11" x="270.72" y="193.53" width="8.39" height="1.05"/><polygon class="cls-12" points="290.06 193.53 288.25 193.53 281.27 193.53 281.27 194.58 288.25 194.58 290.06 194.58 307.73 194.58 307.73 193.53 290.06 193.53"/><rect class="cls-11" x="275.56" y="196.12" width="8.51" height="1.05"/><rect class="cls-11" x="276.42" y="201.31" width="6.49" height="1.05"/><polygon class="cls-12" points="289.1 198.72 288.25 198.72 276.42 198.72 276.42 199.77 288.25 199.77 289.1 199.77 295.32 199.77 295.32 198.72 289.1 198.72"/><rect class="cls-11" x="297.17" y="198.72" width="4.3" height="1.05"/><rect class="cls-11" x="303.56" y="198.72" width="4.17" height="1.05"/><rect class="cls-11" x="284.77" y="201.31" width="12.4" height="1.05"/><rect class="cls-11" x="298.74" y="201.31" width="3.15" height="1.05"/><rect class="cls-11" x="281.75" y="203.92" width="6.04" height="1.05"/><rect class="cls-11" x="265.52" y="211.71" width="8.35" height="1.05"/><polygon class="cls-12" points="273.87 209.11 270.86 209.11 265.52 209.11 265.52 210.16 270.86 210.16 273.87 210.16 290.16 210.16 290.16 209.11 273.87 209.11"/><rect class="cls-11" x="276.42" y="211.71" width="7.52" height="1.05"/><rect class="cls-11" x="292.17" y="209.11" width="3.75" height="1.05"/><rect class="cls-11" x="297.53" y="209.11" width="4.64" height="1.05"/><rect class="cls-11" x="291.25" y="211.71" width="8.35" height="1.05"/><rect class="cls-11" x="285.61" y="211.71" width="3.55" height="1.05"/><rect class="cls-13" x="252.22" y="130.76" width="67.03" height="5.22"/><path class="cls-14" d="M363.53,234.87a1.37,1.37,0,1,1-1.36-1.36A1.36,1.36,0,0,1,363.53,234.87Z" transform="translate(-47.51 -101.83)"/><path class="cls-14" d="M359,234.87a1.37,1.37,0,1,1-1.36-1.36A1.36,1.36,0,0,1,359,234.87Z" transform="translate(-47.51 -101.83)"/><rect class="cls-11" x="90.91" y="66.24" width="153.1" height="176.51"/><rect class="cls-13" x="90.91" y="66.24" width="153.1" height="8.53"/><path class="cls-14" d="M287.23,172.13a2,2,0,1,1-2-2A2,2,0,0,1,287.23,172.13Z" transform="translate(-47.51 -101.83)"/><path class="cls-14" d="M280.43,172.13a2,2,0,1,1-2-2A2,2,0,0,1,280.43,172.13Z" transform="translate(-47.51 -101.83)"/><rect class="cls-15" x="90.91" y="90.12" width="153.1" height="9.93"/><rect class="cls-11" x="188.49" y="92.91" width="46.92" height="4.35"/><rect class="cls-16" x="101.32" y="93.62" width="13.73" height="2.93"/><rect class="cls-16" x="116.17" y="93.62" width="13.73" height="2.93"/><rect class="cls-16" x="131.02" y="93.62" width="13.73" height="2.93"/><rect class="cls-16" x="145.87" y="93.62" width="13.73" height="2.93"/><rect class="cls-17" x="121.23" y="114.86" width="27.88" height="22.59"/><path class="cls-12" d="M286,195.26a1.09,1.09,0,1,0,1.09,1.09,1.09,1.09,0,0,0-1.09-1.09Zm-1,.08h0a1.47,1.47,0,0,1,2.06,0,1.4,1.4,0,0,1,0,2,1.47,1.47,0,0,1-2.06,0A1.4,1.4,0,0,1,285,195.34Z" transform="translate(-47.51 -101.83)"/><path class="cls-12" d="M287.27,197.91l-.32-.32.17-.14a.68.68,0,0,0,.17-.21l.33.33Z" transform="translate(-47.51 -101.83)"/><path class="cls-12" d="M289,198.85a.27.27,0,0,1,0,.4.29.29,0,0,1-.42,0L287.3,198l.42-.41Z" transform="translate(-47.51 -101.83)"/><path class="cls-12" d="M285.91,197.24a.85.85,0,0,0,.31-.06h0a.09.09,0,0,0,0-.13.09.09,0,0,0-.12-.05.71.71,0,0,1-.24,0,.47.47,0,0,1-.47-.28.1.1,0,0,0-.13,0,.09.09,0,0,0-.05.12.67.67,0,0,0,.64.41Z" transform="translate(-47.51 -101.83)"/><rect class="cls-18" x="152.24" y="114.68" width="27.88" height="22.59"/><rect class="cls-19" x="183.25" y="114.56" width="27.88" height="22.59"/><rect class="cls-20" x="103.1" y="214.32" width="39.92" height="1.97"/><rect class="cls-20" x="103.1" y="217.88" width="39.92" height="1.97"/><rect class="cls-20" x="103.1" y="221.45" width="39.92" height="1.97"/><rect class="cls-20" x="103.1" y="225.01" width="39.92" height="1.97"/><rect class="cls-20" x="103.1" y="228.58" width="39.92" height="1.97"/><rect class="cls-20" x="103.1" y="232.14" width="39.92" height="1.97"/><rect class="cls-20" x="103.1" y="235.71" width="39.92" height="1.97"/><rect class="cls-20" x="147.98" y="214.32" width="39.92" height="1.97"/><rect class="cls-20" x="147.98" y="217.88" width="39.92" height="1.97"/><rect class="cls-20" x="147.98" y="221.45" width="39.92" height="1.97"/><rect class="cls-20" x="147.98" y="225.01" width="39.92" height="1.97"/><rect class="cls-20" x="147.98" y="228.58" width="39.92" height="1.97"/><rect class="cls-20" x="147.98" y="232.14" width="39.92" height="1.97"/><rect class="cls-20" x="147.98" y="235.71" width="39.92" height="1.97"/><rect class="cls-20" x="193.11" y="214.32" width="39.92" height="1.97"/><rect class="cls-20" x="193.11" y="217.88" width="39.92" height="1.97"/><rect class="cls-20" x="193.11" y="221.45" width="39.92" height="1.97"/><rect class="cls-20" x="193.11" y="225.01" width="39.92" height="1.97"/><rect class="cls-20" x="193.11" y="228.58" width="39.92" height="1.97"/><rect class="cls-20" x="193.11" y="232.14" width="39.92" height="1.97"/><rect class="cls-20" x="193.11" y="235.71" width="39.92" height="1.97"/><rect class="cls-15" x="90.91" y="152.11" width="153.1" height="47.79"/><rect class="cls-16" x="105.26" y="160.01" width="39.48" height="31.99"/><rect class="cls-11" x="154.92" y="171.24" width="63.17" height="1.05"/><rect class="cls-11" x="154.92" y="173.84" width="63.17" height="1.05"/><rect class="cls-11" x="154.92" y="176.44" width="63.17" height="1.05"/><rect class="cls-11" x="154.92" y="179.04" width="41.62" height="1.05"/><polygon class="cls-21" points="92.66 176.01 94.54 174.93 96.42 173.84 96.42 176.01 96.42 178.18 94.54 177.1 92.66 176.01"/><polygon class="cls-21" points="242.25 176.01 240.37 174.93 238.49 173.84 238.49 176.01 238.49 178.18 240.37 177.1 242.25 176.01"/><rect class="cls-17" x="103.1" y="202.16" width="39.92" height="10.33"/><rect class="cls-19" x="147.98" y="202.59" width="39.92" height="10.33"/><rect class="cls-18" x="193.11" y="202.69" width="39.92" height="10.33"/><rect class="cls-22" x="392.62" y="282.74" width="15.4" height="66.04" transform="translate(-155.67 176.52) rotate(-34.06)"/><rect class="cls-23" x="403.84" y="324.23" width="13.65" height="13.65" transform="translate(-162.45 184.76) rotate(-34.04)"/><rect class="cls-24" x="395.68" y="312.17" width="13.65" height="13.64" transform="translate(-157.1 178.24) rotate(-34.05)"/><rect class="cls-25" x="387.53" y="300.1" width="13.65" height="13.65" transform="translate(-151.75 171.72) rotate(-34.06)"/><rect class="cls-26" x="379.37" y="288.03" width="13.65" height="13.65" transform="translate(-146.39 164.99) rotate(-34.05)"/><rect class="cls-22" x="401.42" y="278.93" width="15.4" height="66.04" transform="translate(-115.66 18.02) rotate(-15.4)"/><rect class="cls-27" x="407.2" y="322.92" width="13.65" height="13.65" transform="translate(-120.21 19.97) rotate(-15.4)"/><rect class="cls-28" x="403.33" y="308.88" width="13.65" height="13.65" transform="translate(-116.64 18.48) rotate(-15.41)"/><rect class="cls-29" x="399.46" y="294.84" width="13.65" height="13.65" transform="translate(-113.03 16.9) rotate(-15.4)"/><rect class="cls-30" x="395.59" y="280.8" width="13.65" height="13.65" transform="translate(-109.45 15.39) rotate(-15.4)"/><rect class="cls-22" x="384.82" y="303.28" width="66.04" height="15.4" transform="translate(44.4 615.44) rotate(-87.92)"/><rect class="cls-31" x="410.35" y="322.61" width="13.65" height="13.64" transform="translate(25.46 632.66) rotate(-87.94)"/><rect class="cls-32" x="410.87" y="308.05" width="13.65" height="13.65" transform="translate(40.51 619.16) rotate(-87.94)"/><rect class="cls-33" x="411.4" y="293.5" width="13.65" height="13.65" transform="translate(55.5 605.6) rotate(-87.93)"/><rect class="cls-34" x="411.92" y="278.95" width="13.65" height="13.65" transform="translate(70.59 592.13) rotate(-87.94)"/><rect class="cls-22" x="392.97" y="304.79" width="66.04" height="15.4" transform="translate(-49.95 519.79) rotate(-72.07)"/><rect class="cls-35" x="413.48" y="323.23" width="13.65" height="13.65" transform="translate(-70.65 526.45) rotate(-72.06)"/><rect class="cls-36" x="417.97" y="309.37" width="13.65" height="13.65" transform="translate(-54.37 521.13) rotate(-72.06)"/><rect class="cls-37" x="422.45" y="295.51" width="13.65" height="13.65" transform="translate(-38 515.91) rotate(-72.08)"/><rect class="cls-7" x="426.93" y="281.66" width="13.65" height="13.65" transform="translate(-21.78 510.5) rotate(-72.06)"/><rect class="cls-22" x="400.24" y="308.39" width="66.04" height="15.4" transform="translate(-120.19 392.18) rotate(-55.49)"/><rect class="cls-38" x="415.98" y="324.48" width="13.65" height="13.65" transform="translate(-137.28 390.05) rotate(-55.48)"/><rect class="cls-39" x="424.23" y="312.48" width="13.65" height="13.65" transform="translate(-123.82 391.67) rotate(-55.48)"/><rect class="cls-40" x="432.48" y="300.48" width="13.65" height="13.64" transform="translate(-110.33 393.34) rotate(-55.49)"/><rect class="cls-41" x="440.74" y="288.48" width="13.65" height="13.64" transform="translate(-96.89 394.87) rotate(-55.48)"/><path class="cls-42" d="M416.48,338.23a1.35,1.35,0,1,1-1.29,1.41A1.35,1.35,0,0,1,416.48,338.23Z" transform="translate(-47.51 -101.83)"/><path class="cls-43" d="M416.51,339a.56.56,0,0,1,.58.53l.48,11.6a.57.57,0,0,1-.54.59.57.57,0,0,1-.58-.54l-.48-11.6A.56.56,0,0,1,416.51,339Z" transform="translate(-47.51 -101.83)"/><rect class="cls-44" x="60.36" y="300.81" width="88.78" height="16.74" transform="translate(-168.48 -28.47) rotate(-25.03)"/><rect class="cls-45" x="63.1" y="313.14" width="88.78" height="3.81" transform="translate(-170.69 -26.78) rotate(-25.03)"/><rect class="cls-46" x="58.59" y="301.21" width="88.78" height="8.37" transform="translate(-167.06 -29.57) rotate(-25.03)"/><rect class="cls-47" x="57.71" y="301.4" width="88.78" height="4.19" transform="translate(-166.35 -30.11) rotate(-25.04)"/><polygon class="cls-48" points="116.63 179.62 101.01 196.15 93.92 180.98 116.63 179.62"/><polygon class="cls-49" points="116.63 179.62 111.43 185.12 109.08 180.07 116.63 179.62"/><path class="cls-50" d="M48.29,335.46l.07.16a8.29,8.29,0,0,0,11,4l3.3-1.54-7.08-15.17-3.3,1.54A8.28,8.28,0,0,0,48.29,335.46Z" transform="translate(-47.51 -101.83)"/><rect class="cls-51" x="58.85" y="320.86" width="5.97" height="16.74" transform="translate(-181.02 -44.74) rotate(-25.03)"/><path class="cls-12" d="M258.73,144l-9.27-.16a.65.65,0,0,0-.7.57v.38a.63.63,0,0,0,.69.58l9.26.17a.65.65,0,0,0,.7-.57v-.38A.64.64,0,0,0,258.73,144Z" transform="translate(-47.51 -101.83)"/><path class="cls-12" d="M258.7,145.71l-9.27-.16a.63.63,0,0,0-.7.56v.38a.64.64,0,0,0,.68.59l9.27.16a.65.65,0,0,0,.71-.56v-.39A.63.63,0,0,0,258.7,145.71Z" transform="translate(-47.51 -101.83)"/><path class="cls-12" d="M258.66,147.44l-9.26-.16a.65.65,0,0,0-.71.57v.38a.64.64,0,0,0,.68.59l9.27.15a.63.63,0,0,0,.7-.56V148A.64.64,0,0,0,258.66,147.44Z" transform="translate(-47.51 -101.83)"/><path class="cls-12" d="M250.53,149l7,.12c0,1.14-1.89,1.88-3.51,1.85S250.51,150.18,250.53,149Z" transform="translate(-47.51 -101.83)"/><path class="cls-12" d="M252.63,134.62c-.76-.13-1.3-1.05-1-2.27.09-.33.35-.49.57-.2a2.58,2.58,0,0,1,.37,1.4,9.56,9.56,0,0,1,0,1.07ZM254,134h0a1.14,1.14,0,0,1-.35-.3,1.41,1.41,0,0,1,.61-1.89c.16-.07.56-.13.6.12a2.3,2.3,0,0,1-.36,1.31,3.57,3.57,0,0,1-.49.76Zm2,.22h0a4,4,0,0,1,.47-1.62,1.46,1.46,0,0,1,1.1-.78c.12,0,.31,0,.31.14a1.4,1.4,0,0,1-.06.45,3.4,3.4,0,0,1-.47,1,2,2,0,0,1-1.35.83h0Zm-.29.51h0a16.64,16.64,0,0,0,.06,1.88,31.55,31.55,0,0,0,.46,3.36l.15.73c.14.65.27,1.31.46,1.94h.21a22.83,22.83,0,0,1-.55-2.42,3.06,3.06,0,0,1-.05-.32A26.63,26.63,0,0,1,256,136c0-.4,0-.84,0-1.3h0a2.15,2.15,0,0,0,1-.32,2.8,2.8,0,0,0,1.11-1.58c.13-.44.17-1.11-.26-1.36s-.94.05-1.25.35a2.33,2.33,0,0,0-.58,1.11,7.67,7.67,0,0,0-.23,1.34h0v0h0a3.94,3.94,0,0,1-1.22-.09h0a3.39,3.39,0,0,0,.7-1.64c0-.45-.08-1-.53-1.19a1.06,1.06,0,0,0-1.16.68,1.93,1.93,0,0,0,.08,1.87,2.21,2.21,0,0,0,.29.32h0a1.59,1.59,0,0,1-.94.44h0a6,6,0,0,0-.31-2.25c-.11-.25-.5-1-.91-.8s-.33,1.44-.24,1.86a2.06,2.06,0,0,0,1,1.54l.21.07h0c0,.63-.07,1.25-.15,1.88-.19,1.42-.5,2.83-.77,4.25-.09.45-.17.89-.25,1.34h.31c.08-.48.18-1,.27-1.43.22-1.11.46-2.22.62-3.33a21.89,21.89,0,0,0,.24-2.67h0a1.53,1.53,0,0,0,1-.39,3.45,3.45,0,0,0,.28-.26h0a2.41,2.41,0,0,0,.92.24,3.54,3.54,0,0,0,.57,0h0Z" transform="translate(-47.51 -101.83)"/><path class="cls-12" d="M255.05,109.9a12.49,12.49,0,0,0-12.7,12.27,12.75,12.75,0,0,0,1.56,6.26c3,5.58,3.72,8.69,4.17,11.7.38,2.52.95,3.12,2.85,3.15l3.54.06,3.54.06c1.9,0,2.49-.54,2.95-3,.56-3,1.42-6.09,4.58-11.56a12.78,12.78,0,0,0,1.77-6.2,12.49,12.49,0,0,0-12.26-12.7Zm9.52,18.34h0c-3.08,5.32-4.08,8.51-4.71,11.91a4.81,4.81,0,0,1-.64,1.9c-.12.12-.36.24-1.19.23l-3.54-.06-3.54-.06c-.84,0-1.07-.15-1.19-.28a4.93,4.93,0,0,1-.57-1.91c-.51-3.43-1.4-6.64-4.29-12.07a11.54,11.54,0,0,1-1.42-5.71,11.36,11.36,0,0,1,22.71.39A11.71,11.71,0,0,1,264.57,128.24Z" transform="translate(-47.51 -101.83)"/><path class="cls-12" d="M248.25,118.86c-.48.39-2.8,2.52-.42,6.38a.58.58,0,0,1-.5.89.57.57,0,0,1-.49-.28c-2.89-4.7.07-7.4.69-7.9a.6.6,0,0,1,.82.1A.57.57,0,0,1,248.25,118.86Z" transform="translate(-47.51 -101.83)"/><path class="cls-12" d="M274.16,121.44a1,1,0,0,0-.68-.29l-4.09-.08a1,1,0,0,0-.69.28,1,1,0,0,0-.29.68.94.94,0,0,0,.27.69,1,1,0,0,0,.68.29l4.08.07a.94.94,0,0,0,.69-.27,1,1,0,0,0,.3-.68A1,1,0,0,0,274.16,121.44Z" transform="translate(-47.51 -101.83)"/><path class="cls-12" d="M268.16,116.17a1,1,0,0,0,.49-.12l3.57-2,.2-.14h0a1,1,0,0,0,.17-1.16,1,1,0,0,0-.58-.46,1,1,0,0,0-.74.08l-3.56,2a.75.75,0,0,0-.2.15,1,1,0,0,0,.65,1.66Z" transform="translate(-47.51 -101.83)"/><path class="cls-12" d="M265.51,104.75a1,1,0,0,0-1.17.14,1,1,0,0,0-.16.2l-2.09,3.52a1,1,0,0,0,.34,1.32,1,1,0,0,0,.48.14,1,1,0,0,0,.69-.27,1.16,1.16,0,0,0,.16-.21l2.08-3.51A1,1,0,0,0,265.51,104.75Z" transform="translate(-47.51 -101.83)"/><path class="cls-12" d="M236.93,113.05l3.49,2.11a.93.93,0,0,0,.49.14,1,1,0,0,0,.68-.27,1,1,0,0,0,.16-.2,1,1,0,0,0-.33-1.33l-3.49-2.11a1,1,0,0,0-1.17.13.78.78,0,0,0-.16.2A1,1,0,0,0,236.93,113.05Z" transform="translate(-47.51 -101.83)"/><path class="cls-12" d="M272,129.74l-3.5-2.11a1,1,0,0,0-1.17.13,1.56,1.56,0,0,0-.16.2,1,1,0,0,0,.33,1.33l3.49,2.11a1,1,0,0,0,1.18-.13.75.75,0,0,0,.15-.2A1,1,0,0,0,272,129.74Z" transform="translate(-47.51 -101.83)"/><path class="cls-12" d="M240.94,127.45a.93.93,0,0,0-.73.09l-3.57,2a1,1,0,0,0-.2.15,1,1,0,0,0,.66,1.67.89.89,0,0,0,.48-.13l3.57-2a1,1,0,0,0,.37-1.31A1,1,0,0,0,240.94,127.45Z" transform="translate(-47.51 -101.83)"/><path class="cls-12" d="M245.27,104.36a1,1,0,0,0-.58-.46,1,1,0,0,0-.73.08.65.65,0,0,0-.21.16,1,1,0,0,0-.18,1.15l2,3.59a1,1,0,0,0,.83.51,1.15,1.15,0,0,0,.48-.13,1,1,0,0,0,.21-.15,1,1,0,0,0,.17-1.16Z" transform="translate(-47.51 -101.83)"/><path class="cls-12" d="M254.94,101.83a.94.94,0,0,0-.69.27,1,1,0,0,0-.3.68l-.07,4.09a1,1,0,0,0,1,1,.92.92,0,0,0,.68-.27,1,1,0,0,0,.3-.68l.07-4.09A1,1,0,0,0,254.94,101.83Z" transform="translate(-47.51 -101.83)"/><path class="cls-12" d="M241,122.24a1,1,0,0,0,.29-.68.93.93,0,0,0-.27-.69,1,1,0,0,0-.68-.3l-4.08-.07a1,1,0,0,0-.69.27,1,1,0,0,0,.66,1.67l4.08.07A1,1,0,0,0,241,122.24Z" transform="translate(-47.51 -101.83)"/><path class="cls-12" d="M321,135.68a9.81,9.81,0,0,0-5.92,4.49,10,10,0,0,0-1.47,6.1A26.56,26.56,0,0,1,311.42,158a1.39,1.39,0,1,0,.26,2.74l8-13.18a2.25,2.25,0,1,1,1.07.68l-8,13.13a1.36,1.36,0,0,0,.64.92,1.38,1.38,0,0,0,1.9-1.91c4.38-5.28,7.94-6.46,10-7.72a10.15,10.15,0,0,0,4.08-3.8,9.94,9.94,0,0,0,1.27-7.27l2.79-3.68s1.24-1.1-.08-1.9L325.09,131a1.41,1.41,0,0,0-2.24.85Z" transform="translate(-47.51 -101.83)"/><path class="cls-12" d="M332.55,135.63a.83.83,0,0,1-1.13.28l-5.52-3.35a.84.84,0,0,1-.28-1.14l2.5-4.1a.82.82,0,0,1,1.13-.28l5.52,3.36a.83.83,0,0,1,.28,1.13Z" transform="translate(-47.51 -101.83)"/><path class="cls-12" d="M125.77,156.15l-47.53,42.1-8.33-9.4,47.53-42.1,8.33,9.4ZM77.54,193.34h0l-.45.4,2.58,2.91.46-.4-2.59-2.91Zm43.59-38.6h0l-.46.4,2.59,2.91.45-.4-2.58-2.91Zm.15,2.37h0l-.45.4,1.34,1.51.45-.4-1.34-1.51Zm-1.09,1h0l-.45.4,1.34,1.51.45-.4-1.34-1.51Zm-1.09,1h0l-.45.4L120,161l.45-.4L119.1,159ZM118,160h0l-.45.39,1.34,1.51.45-.4L118,160Zm-2.33-.45h0l-.45.4,2.58,2.92.45-.4-2.58-2.92Zm.15,2.37h0l-.45.4,1.34,1.51.45-.4-1.34-1.51Zm-1.09,1h0l-.45.4,1.34,1.51.45-.4-1.34-1.51Zm-1.09,1h0l-.45.39,1.34,1.51.45-.39-1.34-1.51Zm-1.08,1h0l-.46.4,1.34,1.51.45-.4-1.33-1.51Zm-2.34-.44h0l-.45.4,2.58,2.91.45-.4-2.58-2.91Zm.16,2.37h0l-.46.4,1.34,1.51.46-.4-1.34-1.51Zm-1.09,1h0l-.46.4,1.34,1.51.45-.4-1.33-1.51Zm-1.09,1h0l-.45.4,1.33,1.51.46-.4-1.34-1.51Zm-1.09,1h0l-.45.4,1.33,1.51.46-.4-1.34-1.51Zm-2.34-.44h0l-.45.4,2.58,2.92.46-.4-2.59-2.92Zm.16,2.37h0l-.45.4,1.34,1.51.44-.4-1.33-1.51Zm-1.09,1h0l-.45.4,1.34,1.51.44-.4-1.33-1.51Zm-1.09,1h0l-.45.4,1.34,1.51.45-.4-1.34-1.51Zm-1.09,1h0l-.45.4,1.34,1.51.45-.4-1.34-1.51ZM99.34,174h0l-.46.4,2.59,2.91.45-.4L99.34,174Zm.15,2.37h0l-.45.4,1.34,1.51.45-.4-1.34-1.51Zm-1.09,1h0l-.45.4,1.34,1.51.45-.4-1.34-1.51Zm-1.09,1h0l-.45.4,1.34,1.51.45-.4-1.34-1.51Zm-1.09,1h0l-.45.4,1.34,1.51.45-.4-1.34-1.51Zm-2.33-.44h0l-.45.4L96,182.18l.45-.4-2.58-2.92Zm.15,2.37h0l-.45.4,1.34,1.51.45-.4L94,181.23Zm-1.09,1h0l-.45.4,1.34,1.51.45-.4L93,182.2Zm-1.09,1h0l-.45.4,1.34,1.51.45-.4-1.34-1.51Zm-1.09,1h0l-.45.4L91.66,186l.45-.4-1.34-1.51Zm-2.33-.44h0l-.45.4L90.57,187l.45-.4-2.58-2.91Zm.16,2.37h0l-.46.4L89.48,188l.45-.4-1.33-1.51Zm-1.09,1h0l-.46.4,1.34,1.51.45-.4L87.51,187Zm-1.09,1h0l-.46.4,1.34,1.51.45-.4L86.42,188Zm-1.09,1h0l-.46.4,1.34,1.51.45-.4L85.33,189ZM83,188.51h0l-.45.4,2.58,2.92.45-.4L83,188.51Zm.16,2.37h0l-.45.4L84,192.79l.46-.4-1.34-1.51Zm-1.09,1h0l-.45.4,1.33,1.51.46-.4-1.34-1.51Zm-1.09,1h0l-.45.4,1.33,1.51.46-.4L81,192.81Zm-1.09,1h0l-.45.4,1.33,1.51.46-.4Z" transform="translate(-47.51 -101.83)"/><path class="cls-12" d="M167.75,135.8a12.07,12.07,0,1,1,13.66,10.37,12.11,12.11,0,0,1-13.66-10.37Zm-8-14.71h0a.44.44,0,0,0-.38.5l.2,1.48-1.77.24a1.29,1.29,0,0,0-1.07,1.41l3.42,24.8a1.21,1.21,0,0,0,1.4,1l40.1-5.53a1.14,1.14,0,0,0,1-1.31l-3.42-24.8a1.22,1.22,0,0,0-1.33-1.08l-2.54.35-.14-1a.75.75,0,0,0-.84-.65l-4.93.68a.75.75,0,0,0-.64.85l.14,1-23.37,3.22-.2-1.48a.46.46,0,0,0-.51-.38l-5.12.71ZM195.29,123h0a.74.74,0,0,0,.64-.85l-.09-.66A.67.67,0,0,0,195,121l-4.93.68a.67.67,0,0,0-.65.75l.09.67a.75.75,0,0,0,.84.64Z" transform="translate(-47.51 -101.83)"/><path class="cls-12" d="M178.08,123.29a11.1,11.1,0,1,0,12.43,9.44,11.06,11.06,0,0,0-12.43-9.44Zm-6.3,12h0a7.89,7.89,0,1,1,8.9,6.85A7.94,7.94,0,0,1,171.78,135.32Z" transform="translate(-47.51 -101.83)"/><path class="cls-12" d="M178.58,127.23a7.13,7.13,0,1,1-6.1,8,7.13,7.13,0,0,1,6.1-8ZM179,130h0a4.37,4.37,0,1,0,4.93,3.74A4.38,4.38,0,0,0,179,130Z" transform="translate(-47.51 -101.83)"/><path class="cls-12" d="M369.88,163.59c1.89-.06,3.65.77,4,1.94s-.93,2.31-3,2.4-3.94-.9-4.15-2.11,1.22-2.17,3.12-2.23Zm24-2.33h0a22.94,22.94,0,0,0-9.26-7,28.19,28.19,0,0,0-11-2.4c-4.57,0-9.65,1.49-5.72,4,2.06,1.3,3.41,2,2.9,3.43s-2.42,1.48-4.81.21c-4.86-2.57-7.21.88-5.59,5.72,2,5.93,10,14.37,24.3,13.17,6.09-.52,10-3.27,11.41-6.89,1.19-3.15.21-7-2.25-10.26ZM378,168.37h0c2.13-.1,4.26.83,4.86,2.21s-.68,2.75-3,2.91-4.64-1-5.05-2.45,1.06-2.57,3.19-2.67Zm-.17-12.18h0c.4.83-.58,1.58-2.27,1.6s-3.35-.71-3.64-1.56.8-1.49,2.38-1.49,3.13.61,3.53,1.45Zm7.32,6.69h0c-.56-1,.21-1.8,1.66-1.83a4.72,4.72,0,0,1,3.77,1.66c.67,1,0,1.91-1.52,2a4.69,4.69,0,0,1-3.91-1.8Zm1.21,3.62h0a5,5,0,0,1,4.2,1.91c.7,1.18-.1,2.29-1.88,2.4s-3.77-.87-4.35-2.08S384.67,166.57,386.33,166.5Z" transform="translate(-47.51 -101.83)"/><path class="cls-12" d="M408.25,144.42c-.31.93-6,25.94-7.41,32.23l.3-.07a4.82,4.82,0,0,1,3.8.86c1.06-6.38,5.27-31.64,5.34-32.62C410.4,143,408.85,142.65,408.25,144.42Z" transform="translate(-47.51 -101.83)"/><path class="cls-12" d="M398.19,180.91c-.42,2.87,1.27,4.88-1.51,8,3.73-1.36,8.82-4.29,8.77-8.82C405.41,176.66,398.93,175.81,398.19,180.91Z" transform="translate(-47.51 -101.83)"/><path class="cls-12" d="M69.62,220.35a5.42,5.42,0,0,0-5.41,5.41v18.72a5.42,5.42,0,0,0,5.41,5.41H96.06a5.41,5.41,0,0,0,5.4-5.41V225.76a5.41,5.41,0,0,0-5.4-5.41ZM96.06,252H69.62a7.49,7.49,0,0,1-7.48-7.49V225.76a7.49,7.49,0,0,1,7.48-7.49H96.06a7.5,7.5,0,0,1,7.48,7.49v18.72A7.5,7.5,0,0,1,96.06,252Z" transform="translate(-47.51 -101.83)"/><polygon class="cls-12" points="27.78 140.39 27.78 126.18 46.47 133.29 27.78 140.39"/><path class="cls-12" d="M417.36,220.8a5.76,5.76,0,0,1,8.81,4.25,5.7,5.7,0,0,1-2.64,5.46,5.75,5.75,0,1,1-6.17-9.71Zm-13.61,7.92,1.72,4.92,5.11-1.78a11.86,11.86,0,0,0,2.58,2.88l-2.35,4.89,4.7,2.26,2.35-4.88a11.64,11.64,0,0,0,3.87.22l1.78,5.12,4.93-1.72-1.79-5.12a11.34,11.34,0,0,0,2.89-2.58l4.88,2.36,2.27-4.7-4.89-2.35a11.4,11.4,0,0,0,.22-3.87l5.12-1.78-1.72-4.93-5.11,1.79a11.73,11.73,0,0,0-2.58-2.89l2.35-4.88-4.69-2.27L423,214.3a11.6,11.6,0,0,0-3.86-.23L417.38,209l-4.92,1.72,1.78,5.11a11.32,11.32,0,0,0-2.88,2.58L406.47,216l-2.26,4.69,4.88,2.36a11.34,11.34,0,0,0-.22,3.86Z" transform="translate(-47.51 -101.83)"/><path class="cls-12" d="M446.28,217.28a4.57,4.57,0,0,1,7,3.37,4.52,4.52,0,0,1-2.1,4.34,4.58,4.58,0,0,1-7-3.37,4.52,4.52,0,0,1,2.1-4.34Zm-10.82,6.29,1.37,3.92,4.06-1.42a9.56,9.56,0,0,0,2.05,2.29l-1.87,3.88,3.73,1.8,1.88-3.88a9.26,9.26,0,0,0,3.07.18l1.42,4.06,3.91-1.36L453.66,229a9.22,9.22,0,0,0,2.3-2.05l3.88,1.87,1.8-3.73-3.88-1.87a9.29,9.29,0,0,0,.17-3.07L462,218.7l-1.37-3.92-4.06,1.42a9.38,9.38,0,0,0-2.05-2.29l1.87-3.88-3.73-1.8-1.88,3.88a9,9,0,0,0-3.07-.18l-1.42-4.07-3.91,1.37,1.42,4.07a9,9,0,0,0-2.29,2l-3.89-1.88-1.8,3.74,3.88,1.87a9.27,9.27,0,0,0-.17,3.07Z" transform="translate(-47.51 -101.83)"/></g></g></g></svg>